<?xml version="1.0" encoding="UTF-8"?>
<svg width="76px" height="109px" viewBox="0 0 76 109" version="1.1" xmlns="http://www.w3.org/2000/svg" xmlns:xlink="http://www.w3.org/1999/xlink">
    <!-- Generator: Sketch 49.1 (51147) - http://www.bohemiancoding.com/sketch -->
    <title>Parens</title>
    <desc>Created with Sketch.</desc>
    <defs></defs>
    <g id="Page-1" stroke="none" stroke-width="1" fill="none" fill-rule="evenodd" fill-opacity="0.876217165">
        <g id="Desktop" transform="translate(-757.000000, -516.000000)" fill="#FFFFFF">
            <g id="Hero">
                <g id="Card" transform="translate(230.000000, 135.000000)">
                    <path d="M542.816245,489.820776 C532.815211,473.509566 527.100335,456.364936 527.100335,435.410388 C527.100335,414.45584 532.815211,397.31121 542.816245,381 L553.769759,385.524277 C545.078384,401.002068 541.268466,418.503878 541.268466,435.410388 C541.268466,452.316898 545.078384,469.818708 553.769759,485.296499 L542.816245,489.820776 Z M586.488089,489.820776 L575.534576,485.296499 C584.34501,469.818708 588.154928,452.316898 588.154928,435.410388 C588.154928,418.503878 584.34501,401.002068 575.534576,385.524277 L586.488089,381 C596.489123,397.31121 602.204,414.45584 602.204,435.410388 C602.204,456.364936 596.489123,473.509566 586.488089,489.820776 Z" id="Parens"></path>
                </g>
            </g>
        </g>
    </g>
</svg>